# xmcd
#
# Track frame offsets:
#	150
#	12927
#	31239
#	43820
#	58774
#	71331
#	84740
#	100835
#	114301
#	130577
#	144061
#	163037
#	176484
#	195639
#	212511
#
# Disc length: 2988
#
# Revision: 1
# Processed by: cddbd v1.5.2PL0 Copyright (c) Steve Scherf et al.
# Submitted via: kJams Pro (development) 1.0patch45.4
#
DISCID=c10baa0f
DTITLE=Ray Price - CB 90076
DYEAR=1960
DGENRE=Country
TTITLE0=Ray Price - Heartaches By The Number
TTITLE1=Ray Price - You're The Best Thing That Ever Happened To Me
TTITLE2=Ray Price - My Shoes Keep Walking Back To You
TTITLE3=Ray Price - City Lights
TTITLE4=Ray Price - Crazy Arms
TTITLE5=Ray Price - Invitation To The Blues
TTITLE6=Ray Price - Touch My Heart
TTITLE7=Ray Price - I've Got A New Heartache
TTITLE8=Ray Price - Soft Rain
TTITLE9=Ray Price - The Same Old Me
TTITLE10=Ray Price - For The Good Times
TTITLE11=Ray Price - One More Time
TTITLE12=Ray Price - I Won't Mention It Again
TTITLE13=Ray Price - Night Life
TTITLE14=Ray Price - I'll Be There (If You Ever Want Me)
EXTD=
EXTT0=
EXTT1=
EXTT2=
EXTT3=
EXTT4=
EXTT5=
EXTT6=
EXTT7=
EXTT8=
EXTT9=
EXTT10=
EXTT11=
EXTT12=
EXTT13=
EXTT14=
PLAYORDER=
